<?xml version="1.0" encoding="UTF-8" standalone="no"?>
<!DOCTYPE svg PUBLIC "-//W3C//DTD SVG 1.1//EN" "http://www.w3.org/Graphics/SVG/1.1/DTD/svg11.dtd">
<svg width="100%" height="100%" viewBox="0 0 2800 3000" version="1.1" xmlns="http://www.w3.org/2000/svg" xmlns:xlink="http://www.w3.org/1999/xlink" xml:space="preserve" xmlns:serif="http://www.serif.com/" style="fill-rule:evenodd;clip-rule:evenodd;stroke-linejoin:round;stroke-miterlimit:2;">
    <g transform="matrix(2,0,0,2,0,0)">
        <g transform="matrix(1.58313,0,0,1.57958,-390.876,-2.11469)">
            <g id="Ebene1">
                <g>
                    <g transform="matrix(3.46112,0,0,3.46112,890.052,294.472)">
                        <path d="M-25.384,57.794L11.693,57.794L-25.384,0L-25.384,57.794Z" style="fill-rule:nonzero;"/>
                    </g>
                    <g transform="matrix(3.46112,0,0,3.46112,890.072,605.414)">
                        <path d="M0,-14.256C2.27,-12.975 3.788,-10.541 3.788,-7.759C3.788,-3.605 0.421,-0.238 -3.733,-0.238C-7.888,-0.238 -11.236,-3.605 -11.236,-7.759C-11.236,-10.541 -9.718,-12.975 -7.467,-14.256L-7.467,-24.578L-25.383,-24.578L-25.383,10.322L30.252,10.322L36.455,6.552L16.489,-24.578L0,-24.578L0,-14.256Z" style="fill-rule:nonzero;"/>
                    </g>
                    <g transform="matrix(3.46112,0,0,3.46112,681.749,488.561)">
                        <path d="M0,9.187L0,-62.46L-15.3,-62.46C-16.617,-60.283 -18.996,-58.837 -21.724,-58.837C-23.864,-58.837 -25.805,-59.734 -27.177,-61.18L-47.143,-32.704L-28.238,-32.704C-26.957,-34.973 -24.523,-36.492 -21.724,-36.492C-17.569,-36.492 -14.201,-33.125 -14.201,-28.97C-14.201,-24.816 -17.569,-21.449 -21.724,-21.449C-24.523,-21.449 -26.957,-22.967 -28.238,-25.237L-52.377,-25.237L-72.911,4.044L-54.097,4.044C-52.798,1.793 -50.364,0.274 -47.582,0.274C-44.8,0.274 -42.367,1.793 -41.067,4.044C-40.427,5.143 -40.061,6.423 -40.061,7.796C-40.061,9.15 -40.427,10.431 -41.067,11.529C-42.348,13.78 -44.782,15.299 -47.582,15.299C-50.382,15.299 -52.816,13.78 -54.097,11.529L-78.163,11.529L-99.666,42.202L-52.597,42.202C-51.261,41.012 -49.522,40.28 -47.582,40.28C-43.428,40.28 -40.061,43.647 -40.061,47.801C-40.061,51.956 -43.428,55.323 -47.582,55.323C-49.504,55.323 -51.242,54.609 -52.578,53.42L-107.536,53.42L-120.31,71.647L25.163,71.647L25.163,9.187L0,9.187Z" style="fill-rule:nonzero;"/>
                    </g>
                    <g transform="matrix(3.46112,0,0,3.46112,681.746,266.473)">
                        <path d="M-15.117,-5.764L7.484,-5.764L7.484,65.883L25.163,65.883L25.163,-71.647L-18.722,-9.077L-15.117,-5.764Z" style="fill-rule:nonzero;"/>
                    </g>
                    <g transform="matrix(3.46112,0,0,3.46112,864.103,906.759)">
                        <path d="M0,-27.039C2.251,-25.74 3.77,-23.306 3.77,-20.524C3.77,-16.37 0.402,-13.003 -3.733,-13.003C-7.888,-13.003 -11.255,-16.37 -11.255,-20.524C-11.255,-23.306 -9.736,-25.74 -7.485,-27.039L-7.485,-37.965L-47.161,-37.965L-47.161,-27.039C-44.892,-25.758 -43.373,-23.324 -43.373,-20.524C-43.373,-19.536 -43.556,-18.602 -43.903,-17.742C-45.02,-14.961 -47.729,-13.003 -50.895,-13.003C-55.049,-13.003 -58.397,-16.351 -58.416,-20.506L-58.416,-20.524C-58.416,-23.324 -56.897,-25.758 -54.628,-27.039L-54.628,-37.965L-95.018,-37.965L-95.018,-27.039C-92.748,-25.758 -91.229,-23.324 -91.229,-20.524C-91.229,-16.37 -94.597,-13.003 -98.751,-13.003C-102.905,-13.003 -106.272,-16.37 -106.272,-20.524C-106.272,-23.324 -104.753,-25.758 -102.484,-27.039L-102.484,-37.965L-150.579,-37.965L-112.55,8.208C-112.55,8.208 -85.283,10.926 -54.646,2.37C-25.598,-5.742 5.271,-7.896 21.375,-5.371L21.521,-5.352C22.034,-5.279 22.528,-5.188 22.985,-5.078L48.076,-37.965L0,-37.965L0,-27.039Z" style="fill-rule:nonzero;"/>
                    </g>
                    <g transform="matrix(3.46112,0,0,3.46112,1041.18,735.453)">
                        <path d="M0,-19.783L-0.201,-20.094C-0.256,-19.985 -0.311,-19.893 -0.384,-19.783C-1.665,-17.532 -4.1,-16.013 -6.899,-16.013C-9.699,-16.013 -12.133,-17.532 -13.414,-19.783L-69.049,-19.783L-69.049,0.311L12.884,0.311L0,-19.783Z" style="fill-rule:nonzero;"/>
                    </g>
                </g>
            </g>
        </g>
    </g>
</svg>
